<?xml version="1.0" encoding="UTF-8"?>
<!-- Generated by Pixelmator Pro 3.3.2 -->
<svg width="640" height="480" viewBox="0 0 640 480" xmlns="http://www.w3.org/2000/svg" xmlns:xlink="http://www.w3.org/1999/xlink">
    <g id="g1">
        <g id="g2">
            <path id="path1" fill="#ce0000" fill-rule="evenodd" stroke="#000063" stroke-width="12.940093" d="M 138.09375 473.90625 L 493.289917 473.90625 L 260.837097 238.171524 L 502.104187 238.45282 L 138.187515 6 L 138.187515 473.90625 Z"/>
            <path id="path2" fill="#ffffff" fill-rule="evenodd" stroke="none" d="M 301.438965 348.537354 L 276.121399 356.976563 L 296.000397 375.542786 L 269.276276 373.854919 L 280.247223 398.422363 L 256.336212 386.888824 L 256.805054 413.706665 L 239.176498 394.109009 L 229.14325 419.051514 L 220.51651 394.39032 L 201.481445 413.706665 L 203.169281 387.732727 L 177.94548 398.422363 L 189.760345 374.980164 L 162.286102 375.542786 L 182.446381 358.383087 L 156.847504 348.537354 L 182.165085 340.098175 L 162.192322 321.531982 L 188.822662 323.219788 L 177.94548 298.652405 L 201.950287 310.185944 L 201.481445 283.368042 L 219.109985 302.965759 L 229.14325 278.023254 L 237.676208 302.684448 L 256.805054 283.368042 L 255.023422 309.342041 L 280.341003 298.652405 L 268.432373 322.094604 L 296.000397 321.531982 L 275.840088 338.69165 Z M 271.057892 175.346436 L 260.462006 183.223022 L 265.713074 187.536377 C 278.029877 178.922516 287.939453 167.302216 294.500092 153.779602 C 296.187927 173.75235 277.903015 218.480072 230.080933 218.948914 C 212.4263 219.174164 195.413162 212.337646 182.823227 199.958984 C 170.233307 187.580383 163.109833 170.685364 163.03624 153.029449 C 172.413132 170.095367 178.226791 178.347046 193.042267 187.255066 L 197.449387 183.129242 L 187.509903 174.783813 L 200.356232 171.408142 L 193.417328 159.780823 L 206.920044 160.718506 L 205.232208 147.21579 L 217.047073 154.154694 L 220.797821 141.495911 L 229.237015 151.622925 L 237.207352 141.964752 L 241.520721 155.092377 L 252.585449 147.40332 L 251.178909 160.812256 L 264.49408 159.218201 L 258.211578 171.595673 Z"/>
        </g>
    </g>
</svg>
