<?xml version="1.0" standalone="no"?>
<!DOCTYPE svg PUBLIC "-//W3C//DTD SVG 20010904//EN"
 "http://www.w3.org/TR/2001/REC-SVG-20010904/DTD/svg10.dtd">
<svg version="1.0" xmlns="http://www.w3.org/2000/svg"
 width="868.000000pt" height="231.000000pt" viewBox="0 0 868.000000 231.000000"
 preserveAspectRatio="xMidYMid meet">

<g transform="translate(0.000000,231.000000) scale(0.100000,-0.100000)"
fill="#000000" stroke="none">
<path d="M1010 2220 c-193 -18 -398 -96 -550 -210 -48 -36 -171 -157 -212
-210 -55 -71 -114 -177 -152 -275 -126 -329 -87 -694 108 -994 55 -86 168
-206 255 -272 83 -62 253 -148 309 -156 66 -9 72 1 72 131 l0 111 -113 0 c-96
0 -118 3 -152 22 -53 28 -77 56 -111 128 -18 39 -49 81 -91 122 -35 33 -63 66
-63 72 0 18 50 24 93 11 42 -12 102 -66 161 -144 16 -21 47 -47 70 -57 73 -33
203 -19 214 24 3 11 17 45 32 74 15 30 22 53 16 54 -68 5 -210 51 -267 87
-144 92 -221 271 -206 480 7 92 26 150 72 218 31 45 34 54 25 84 -15 52 -12
136 6 202 15 54 19 58 46 58 42 0 144 -37 212 -77 l60 -35 81 16 c106 21 278
21 383 -1 79 -16 84 -16 110 0 65 43 177 90 223 95 46 4 49 3 60 -24 25 -66
31 -138 19 -207 -11 -64 -11 -70 8 -90 59 -63 98 -211 88 -332 -23 -269 -162
-419 -432 -466 l-64 -11 24 -31 c38 -51 46 -100 46 -298 0 -216 3 -225 69
-216 60 8 217 87 309 157 532 401 587 1177 117 1645 -234 233 -545 345 -875
315z"/>
<path d="M3405 1844 c-185 -36 -325 -157 -399 -344 -73 -183 -85 -526 -25
-740 60 -217 196 -355 406 -412 63 -17 107 -21 233 -21 175 0 254 16 374 74
l66 32 0 384 0 383 -257 -2 -258 -3 -3 -132 c-1 -73 1 -134 5 -134 4 -1 49 -3
98 -4 50 -2 93 -3 98 -4 4 -1 7 -66 7 -146 0 -129 -2 -146 -17 -152 -10 -4
-65 -7 -123 -7 -86 -1 -113 3 -150 20 -133 62 -186 173 -197 409 -12 281 62
443 230 502 68 24 262 23 360 0 38 -10 74 -17 82 -17 14 0 69 215 63 247 -12
63 -396 106 -593 67z"/>
<path d="M5455 1798 c-3 -7 -4 -335 -3 -728 l3 -715 150 0 150 0 3 313 2 312
210 0 210 0 1 -62 c0 -35 2 -175 2 -313 l2 -250 153 -3 152 -3 -2 728 -3 728
-145 0 -144 0 -7 -25 c-4 -14 -7 -136 -8 -272 l-1 -248 -210 0 -210 0 -2 273
-3 272 -148 3 c-112 2 -149 0 -152 -10z"/>
<path d="M7701 1797 c-7 -10 -10 -219 -8 -728 l2 -714 110 0 110 0 9 30 c6 17
11 32 13 34 1 2 15 -6 32 -18 88 -63 272 -97 382 -71 194 46 271 173 286 470
18 385 -102 573 -367 571 -82 0 -210 -29 -235 -52 -28 -27 -31 -4 -34 233 -1
134 -5 246 -7 250 -3 5 -67 8 -143 8 -103 0 -141 -3 -150 -13z m558 -705 c60
-44 87 -172 71 -331 -15 -137 -41 -175 -131 -187 -47 -6 -161 17 -186 37 -10
9 -13 62 -13 235 l0 223 31 16 c71 37 183 41 228 7z"/>
<path d="M4334 1770 c-109 -23 -171 -150 -121 -247 20 -37 70 -81 103 -89 44
-11 120 2 154 26 38 27 69 90 70 140 0 44 -36 118 -70 142 -32 23 -97 36 -136
28z"/>
<path d="M4797 1624 c-4 -4 -7 -71 -7 -148 l0 -141 -80 -19 c-90 -21 -83 -9
-82 -144 0 -40 3 -76 7 -80 4 -4 37 -8 73 -9 37 0 70 -2 74 -2 4 -1 8 -121 10
-268 3 -257 4 -270 27 -321 31 -69 98 -127 170 -149 67 -21 225 -23 289 -5
l42 13 0 114 0 114 -67 -1 c-79 -1 -116 11 -138 45 -13 20 -15 58 -13 243 l3
218 90 2 c50 0 98 2 108 2 15 2 17 15 17 127 l0 125 -110 0 -109 0 -3 143 -3
142 -146 3 c-80 1 -148 -1 -152 -4z"/>
<path d="M4217 1333 c-4 -3 -7 -221 -7 -483 0 -395 2 -480 14 -489 9 -8 59
-11 152 -9 l139 3 7 45 c8 57 10 818 2 888 l-7 52 -147 0 c-81 0 -150 -3 -153
-7z"/>
<path d="M6642 938 l3 -403 30 -60 c32 -65 92 -114 163 -135 117 -35 296 -18
420 40 35 16 66 30 67 30 2 0 6 -14 10 -30 l7 -31 101 3 102 3 0 490 0 490
-150 0 -150 0 -5 -360 -5 -359 -48 -18 c-45 -17 -87 -22 -149 -19 -15 0 -40
12 -55 25 l-28 24 -5 354 -5 353 -153 3 -153 3 3 -403z"/>
</g>
</svg>
