<?xml version="1.0" standalone="no"?>
<!DOCTYPE svg PUBLIC "-//W3C//DTD SVG 20010904//EN"
 "http://www.w3.org/TR/2001/REC-SVG-20010904/DTD/svg10.dtd">
<svg version="1.0" xmlns="http://www.w3.org/2000/svg"
 width="2000.000000pt" height="745.000000pt" viewBox="0 0 2000.000000 745.000000"
 preserveAspectRatio="xMidYMid meet">

<g transform="translate(0.000000,745.000000) scale(0.100000,-0.100000)"
fill="#000000" stroke="none">
<path d="M3676 7433 c-17 -11 -69 -83 -130 -183 -100 -160 -104 -165 -142
-171 -21 -4 -44 -4 -50 0 -5 3 -68 68 -138 143 -70 75 -141 142 -156 148 -39
16 -85 4 -113 -29 -12 -15 -51 -105 -87 -201 -61 -165 -66 -173 -99 -187 -19
-8 -42 -13 -51 -10 -9 2 -87 54 -172 116 -165 118 -188 127 -247 96 -39 -20
-47 -44 -81 -254 -17 -102 -32 -186 -33 -187 -10 -8 -68 -34 -76 -34 -5 0 -88
36 -185 80 -96 44 -184 80 -196 80 -36 0 -81 -30 -94 -63 -10 -25 -12 -76 -6
-222 l7 -190 -31 -33 -32 -32 -193 46 c-122 28 -203 43 -220 39 -44 -11 -81
-54 -81 -94 0 -20 19 -118 42 -217 l41 -182 -24 -31 -24 -32 -201 7 c-174 5
-205 4 -232 -10 -75 -39 -71 -83 28 -301 l80 -177 -21 -37 -21 -37 -181 -28
c-100 -16 -197 -35 -215 -43 -53 -25 -76 -87 -51 -136 7 -12 61 -90 120 -173
107 -149 109 -152 98 -185 -7 -19 -17 -39 -23 -45 -6 -7 -87 -40 -181 -75
-197 -73 -225 -93 -225 -161 0 -42 1 -45 150 -188 139 -134 150 -148 150 -181
0 -44 1 -44 -185 -158 -82 -51 -158 -103 -167 -115 -20 -24 -23 -74 -6 -111 7
-17 64 -58 167 -121 86 -53 164 -103 174 -112 10 -9 17 -30 17 -51 0 -33 -10
-46 -150 -181 -147 -142 -150 -146 -150 -187 0 -71 28 -91 236 -167 l180 -67
11 -42 12 -42 -108 -150 c-59 -82 -113 -161 -120 -174 -18 -33 -6 -83 28 -115
26 -25 46 -30 224 -59 l196 -31 21 -38 21 -37 -81 -177 c-89 -197 -96 -234
-56 -281 l25 -28 217 3 218 3 23 -28 c12 -15 22 -35 23 -43 0 -8 -18 -91 -40
-183 -47 -199 -49 -234 -16 -270 40 -44 63 -43 273 7 l195 46 28 -23 c16 -12
30 -26 33 -32 2 -5 1 -93 -3 -195 -3 -102 -2 -200 2 -218 10 -37 58 -72 97
-72 13 0 105 37 203 81 l178 82 40 -18 c31 -14 41 -25 45 -49 3 -17 16 -101
30 -186 30 -181 38 -206 76 -225 60 -32 83 -23 258 102 l163 117 42 -15 41
-14 67 -179 c78 -208 94 -231 164 -231 l46 0 146 152 147 152 40 -7 c38 -7 42
-12 141 -172 118 -191 142 -213 212 -192 43 13 54 27 198 264 56 93 60 96 99
101 l40 4 151 -155 151 -155 43 6 c26 3 52 15 66 29 13 13 52 101 90 203 37
99 72 183 77 187 6 3 26 9 44 13 30 5 47 -4 195 -110 169 -121 193 -131 252
-104 38 18 51 58 80 239 15 91 28 174 31 185 4 19 55 55 78 55 6 0 92 -36 190
-81 197 -90 220 -93 272 -41 l28 27 -6 212 -5 212 34 26 33 25 186 -45 c103
-25 198 -45 212 -45 37 0 93 60 93 99 0 17 -18 107 -40 201 -22 94 -40 177
-40 186 0 9 9 29 21 45 l21 30 215 -3 214 -3 30 33 c19 21 29 43 29 64 0 18
-34 107 -81 209 l-81 177 20 39 20 39 179 28 c98 15 190 32 205 38 44 16 71
53 71 97 0 39 -30 87 -216 342 -16 23 -17 31 -7 67 14 44 -15 30 311 154 79
29 102 47 114 86 18 59 1 84 -150 223 l-144 134 -1 46 0 46 164 101 c91 56
174 114 185 128 27 34 27 84 1 117 -12 15 -95 72 -185 128 l-165 103 0 45 1
46 144 134 c151 139 168 164 150 223 -12 39 -35 57 -114 86 -325 124 -297 110
-310 153 -7 22 -9 45 -5 52 4 6 56 80 115 162 59 83 108 159 109 170 5 45 -1
66 -27 95 -27 29 -36 32 -227 62 l-198 32 -20 41 -19 40 80 177 c46 101 81
191 81 209 0 22 -10 41 -35 66 l-36 36 -207 -8 -207 -7 -22 31 c-13 16 -23 37
-23 45 0 9 18 92 40 186 22 94 40 183 40 199 0 37 -42 88 -79 96 -19 4 -97
-10 -221 -39 l-192 -46 -34 26 -33 26 6 206 6 207 -27 32 c-49 59 -72 56 -276
-37 -256 -115 -250 -119 -296 157 -32 190 -34 199 -64 226 -22 19 -41 27 -69
27 -33 0 -61 -16 -199 -116 -148 -106 -164 -115 -195 -109 -18 4 -38 10 -44
13 -6 4 -38 80 -71 169 -76 201 -85 219 -124 239 -59 30 -81 17 -238 -145
l-145 -149 -40 5 c-40 5 -41 6 -137 162 -53 86 -108 167 -121 179 -33 31 -85
38 -121 15z m145 -666 c85 -45 133 -154 109 -250 -35 -137 -200 -206 -323
-134 -67 40 -100 94 -105 172 -2 35 1 78 7 97 13 38 70 99 116 122 46 24 143
21 196 -7z m-189 -742 c47 -19 109 -19 154 0 19 8 116 92 215 187 100 95 194
183 209 195 l28 23 140 -35 c380 -93 752 -277 1052 -520 136 -110 320 -294
422 -420 81 -102 238 -337 238 -357 0 -7 -59 -146 -131 -308 -143 -319 -154
-358 -125 -433 29 -76 63 -98 341 -220 l260 -114 8 -38 c4 -21 6 -129 5 -239
l-3 -201 -155 -5 -155 -5 -6 -130 c-9 -181 -31 -254 -100 -323 -69 -70 -197
-108 -311 -92 -72 11 -104 22 -160 58 -53 34 -64 56 -93 188 -59 265 -145 415
-319 561 -50 42 -92 79 -94 82 -1 4 38 35 87 69 320 226 475 480 458 751 -11
169 -59 297 -168 441 -138 183 -360 323 -629 396 l-105 29 -1498 5 -1499 5
119 115 c374 365 813 606 1313 719 l85 20 190 -195 c126 -129 202 -199 227
-209z m-2449 -1267 c52 -29 102 -102 111 -160 19 -128 -88 -248 -221 -248 -62
1 -120 27 -161 75 -43 48 -54 77 -55 146 -2 164 179 268 326 187z m5274 -6
c76 -39 116 -107 117 -197 2 -113 -79 -204 -189 -213 -79 -6 -116 4 -164 44
-57 49 -81 100 -81 170 0 168 168 272 317 196z m-4569 -879 l-3 -868 -390 0
-389 0 -22 85 c-57 224 -91 544 -80 765 11 209 -21 173 264 300 162 72 260
121 284 143 63 57 78 149 38 238 -12 27 -37 84 -56 127 l-33 77 194 0 195 0
-2 -867z m2243 831 c142 -42 230 -137 230 -250 0 -102 -63 -170 -201 -216 -63
-22 -81 -23 -557 -26 l-493 -3 0 255 0 256 483 0 c413 0 491 -2 538 -16z
m-203 -1248 c139 -37 245 -142 298 -295 13 -36 46 -176 74 -311 28 -135 63
-279 76 -320 50 -148 182 -318 289 -371 l50 -24 603 -5 603 -5 -65 -80 c-35
-44 -91 -109 -123 -144 l-58 -64 -239 52 c-131 28 -257 51 -280 51 -81 -1
-161 -58 -185 -132 -5 -18 -33 -141 -61 -273 -28 -132 -53 -248 -56 -257 -3
-11 -51 -35 -132 -66 -216 -84 -372 -126 -607 -163 -202 -32 -558 -32 -765 0
-173 26 -307 57 -461 107 -91 29 -294 108 -307 119 -1 1 -29 124 -61 272 -33
149 -66 284 -74 299 -32 61 -104 104 -174 104 -21 0 -142 -22 -268 -50 l-230
-50 -55 58 c-30 32 -84 93 -119 137 l-64 80 1129 5 1129 5 3 418 2 417 -345 0
-345 0 0 250 0 250 383 0 c296 0 394 -3 435 -14z m-1751 -1814 c76 -39 116
-107 117 -197 1 -74 -34 -142 -96 -183 -37 -24 -51 -27 -122 -27 -72 0 -86 3
-121 27 -64 44 -89 89 -93 169 -3 55 0 77 18 114 53 109 187 153 297 97z
m3280 -10 c76 -39 116 -107 117 -197 2 -113 -79 -204 -189 -213 -81 -7 -118 4
-169 49 -55 49 -77 95 -78 166 -2 164 172 270 319 195z"/>
<path d="M8860 5370 l0 -380 140 0 140 0 0 -1040 0 -1040 -140 0 -140 0 0
-380 0 -380 940 0 940 0 0 380 0 380 -155 0 -155 0 0 381 0 381 103 -7 c211
-14 314 -52 373 -138 62 -89 64 -118 64 -781 l0 -596 735 0 735 0 0 380 0 380
-110 0 -110 0 0 228 c0 315 -22 406 -126 521 -52 58 -171 123 -259 141 -49 10
-55 14 -55 36 0 19 8 29 37 40 106 45 244 173 308 288 87 155 127 328 127 546
-1 632 -318 965 -981 1030 -63 6 -553 10 -1257 10 l-1154 0 0 -380z m1976
-415 c37 -24 56 -45 79 -90 l30 -59 0 -190 c0 -225 -9 -262 -81 -324 -56 -50
-113 -62 -296 -62 l-138 0 0 381 0 381 178 -4 179 -3 49 -30z"/>
<path d="M18360 5138 c0 -192 -25 -268 -111 -341 -41 -36 -113 -63 -191 -72
l-48 -6 0 -380 0 -379 100 0 100 0 0 -457 c0 -473 7 -616 40 -763 67 -308 233
-505 501 -594 284 -95 748 -77 1142 45 l97 30 0 365 0 366 -22 -6 c-66 -17
-283 -38 -369 -34 -86 3 -102 7 -145 34 -37 23 -56 44 -79 89 l-30 59 -3 433
-3 433 313 2 313 3 3 378 2 377 -315 0 -315 0 0 275 0 275 -490 0 -490 0 0
-132z"/>
<path d="M16510 4779 c-144 -12 -256 -34 -377 -74 -293 -98 -463 -253 -550
-500 -26 -76 -28 -90 -28 -255 0 -156 3 -183 23 -250 66 -211 205 -367 427
-478 160 -80 309 -121 603 -167 216 -34 301 -61 316 -100 24 -64 -9 -123 -80
-145 -58 -18 -350 -24 -526 -11 -148 11 -555 56 -610 67 l-28 6 0 -321 0 -321
28 -11 c99 -39 443 -98 692 -119 185 -16 563 -17 680 -1 404 54 663 207 795
469 62 125 78 203 79 392 1 127 -3 182 -17 239 -89 370 -392 568 -967 636
-294 35 -381 59 -401 112 -43 115 156 160 591 134 196 -12 576 -46 618 -56
l22 -5 0 314 0 315 -67 21 c-288 89 -851 139 -1223 109z"/>
<path d="M12400 4340 l0 -380 99 0 99 0 5 -492 c3 -399 7 -513 21 -596 86
-526 354 -789 801 -785 271 2 476 88 683 287 l92 89 0 -157 0 -156 635 0 635
0 0 380 0 380 -100 0 -100 0 0 905 0 905 -660 0 -660 0 2 -377 3 -378 123 -3
122 -3 0 -417 c0 -483 -2 -498 -75 -568 -93 -90 -304 -87 -388 5 -69 76 -67
54 -67 943 l0 798 -635 0 -635 0 0 -380z"/>
</g>
</svg>
