<?xml version="1.0" encoding="UTF-8"?>
<!-- Generated by Pixelmator Pro 3.3.2 -->
<svg width="682" height="204" viewBox="0 0 682 204" xmlns="http://www.w3.org/2000/svg" xmlns:xlink="http://www.w3.org/1999/xlink">
    <g id="g1">
        <path id="path1" fill="#1d5ff1" stroke="none" d="M 60.666668 43.333328 C 29.866667 64.933334 3.466667 84 2.133333 85.866669 C -2.666667 92.26667 0.8 94.666664 36.400002 108.800003 C 53.866665 115.599998 68.666664 121.333336 69.333336 121.333336 C 72.666664 121.333336 69.73333 117.199997 57.333332 104.533333 C 47.066666 93.866669 44 90 44 87.199997 C 44 83.199997 42 85.333336 94.400002 34.266663 C 110 19.066666 122.400002 6 122 5.333328 C 121.599998 4.53334 120.133331 4 118.933334 4.133331 C 117.73333 4.133331 91.466667 21.866669 60.666668 43.333328 Z"/>
        <path id="path2" fill="#000000" stroke="none" d="M 340.399994 13.199997 C 337.466675 15.066666 335.866669 17.199997 335.333344 20.266663 C 334.933319 22.666672 334.799988 60.666672 334.933319 104.666664 L 335.333344 184.666672 L 348.399994 185.066666 L 361.333344 185.466675 L 361.333344 99.466667 C 361.333344 42.133331 360.933319 13.199997 360 12.666672 C 359.200012 12.133331 355.466675 11.46666 351.600006 11.199997 C 346.133331 10.666672 343.733337 11.066666 340.399994 13.199997 Z"/>
        <path id="path3" fill="#000000" stroke="none" d="M 405.333344 14.266663 C 401.600006 15.600006 397.466675 20.399994 396 24.800003 C 392.666656 34.800003 400.666656 45.333328 411.600006 45.333328 C 416.666656 45.333328 418.266663 44.666672 422.133331 40.800003 C 426 36.933334 426.666656 35.333328 426.666656 29.733337 C 426.666656 26 425.733337 22 424.533325 20.266663 C 420.666656 14.666672 411.733337 11.866669 405.333344 14.266663 Z"/>
        <path id="path4" fill="#000000" stroke="none" d="M 607.733337 35.333328 C 605.333313 36.666672 603.866638 38.800003 603.333313 41.733337 C 602.93335 44 602.666687 71.733337 602.93335 103.333336 C 603.333313 167.600006 603.06665 165.333328 613.333313 176.533325 C 621.200012 185.066666 628 187.333328 645.333313 187.199997 C 660.266663 187.199997 670.400024 184.533325 678.533325 178.800003 L 682.533325 175.866669 L 677.733337 168 C 675.06665 163.600006 672.533325 159.600006 672 159.333328 C 671.333313 158.933334 668.266663 159.866669 665.200012 161.333328 C 658.133362 164.533325 645.866638 164.800003 639.200012 162 C 635.866638 160.666672 633.866638 158.533325 632 154.399994 C 629.733337 149.333328 629.333313 145.466675 629.333313 119.599998 L 629.333313 90.666664 L 652 90.666664 L 674.666687 90.666664 L 676 87.199997 C 678.400024 80.933334 677.599976 73.46666 674 70 C 670.799988 66.800003 670.266663 66.666672 650 66.666672 L 629.333313 66.666672 L 629.333313 50.800003 C 629.333313 35.46666 629.200012 34.933334 626.400024 34.133331 C 621.06665 32.800003 611.466675 33.333328 607.733337 35.333328 Z"/>
        <path id="path5" fill="#000000" stroke="none" d="M 230 64.666672 C 206.800003 68.800003 194.666672 81.599998 194.666672 101.466667 C 194.800003 116.933334 204.666672 128.533325 222.133331 133.199997 C 225.066666 134 236.266663 135.866669 247.066666 137.199997 C 272.799988 140.666672 277.333344 143.199997 277.333344 153.733337 C 277.333344 163.466675 266.933319 167.466675 243.600006 166.399994 C 229.600006 165.733337 218.53334 163.066666 204 156.800003 C 202.399994 156.133331 200.666672 158.133331 197.066666 164.666672 L 192.133331 173.466675 L 196.399994 176.133331 C 202.133331 179.600006 219.600006 184.933334 232 186.800003 C 246.53334 189.066666 269.466675 187.733337 279.066681 184 C 296.133331 177.600006 305.333344 165.600006 305.333344 149.866669 C 305.333344 126.533333 292.799988 118 250.800003 112.666664 C 226.933334 109.599998 221.333328 106.666664 221.333328 97.466667 C 221.333328 87.73333 229.066666 84 249.333328 84 C 263.600006 84 274.533325 86.26667 285.200012 91.73333 L 292.266663 95.199997 L 295.466675 91.599998 C 300.399994 85.866669 299.866669 78.666664 294.133331 73.600006 C 283.733337 64.53334 253.733337 60.266663 230 64.666672 Z"/>
        <path id="path6" fill="#000000" stroke="none" d="M 502.666656 64.133331 C 486.399994 66.933334 470.533325 77.866669 464.266663 90.800003 C 459.466675 100.800003 458.666656 109.599998 458.933319 148.133331 L 459.333344 184.666672 L 472.266663 185.066666 L 485.066681 185.466675 L 485.600006 147.733337 C 486 120.133331 486.666656 108.800003 488 105.333336 C 492.799988 92.933334 500.799988 88 516.133362 88 C 532.133362 88 541.599976 94.400002 545.333313 107.866669 C 546 110.533333 546.666687 128.800003 546.666687 148.933334 L 546.666687 185.333328 L 560.133362 185.333328 L 573.466675 185.333328 L 573.06665 142.266663 L 572.666687 99.333336 L 568.93335 91.866669 C 564.93335 83.599998 555.200012 73.733337 547.06665 69.600006 C 540.666687 66.266663 523.599976 62.666672 515.733337 62.800003 C 512.533325 62.933334 506.666656 63.46666 502.666656 64.133331 Z"/>
        <path id="path7" fill="#000000" stroke="none" d="M 401.733337 69.866669 L 398 73.066666 L 398 128.933334 L 398 184.666672 L 411.066681 185.066666 L 424 185.466675 L 424 126.933334 L 424 68.266663 L 421.066681 67.46666 C 413.866669 65.600006 405.600006 66.666672 401.733337 69.866669 Z"/>
        <path id="path8" fill="#1d5ff1" stroke="none" d="M 72.800003 85.066666 C 72.400002 85.73333 77.599998 91.599998 84.133331 98.133331 C 97.066666 110.933334 100.666664 116 99.333336 120 C 98.933334 121.466667 81.199997 139.466675 59.866665 160.133331 C 38.666668 180.800003 21.333334 198.53334 21.333334 199.600006 C 21.333334 200.53334 22.4 201.333328 23.733334 201.333328 C 24.933332 201.333328 51.866665 183.333328 83.333336 161.333328 C 141.733337 120.666664 145.199997 117.73333 141.866669 112.26667 C 140.53334 110.26667 78.933334 84.133331 75.066666 84 C 74.26667 84 73.199997 84.533333 72.800003 85.066666 Z"/>
    </g>
</svg>
